<svg width="579" height="173" viewBox="0 0 579 173" fill="none" xmlns="http://www.w3.org/2000/svg">
<g clip-path="url(#clip0_28_1)">
<path d="M4.24574 12.0994C5.86506 12.0994 6.96591 11.0447 6.96236 9.57457C6.96591 8.18253 5.9929 7.18111 4.68253 7.18111C4.04332 7.18111 3.4929 7.44744 3.23722 7.80611H3.1946L3.38281 5.98438H6.56108V4.72727H2.11506L1.7706 8.5625L3.13778 8.80753C3.36151 8.50568 3.79474 8.31747 4.22443 8.31747C4.95597 8.32102 5.48153 8.85014 5.48153 9.61364C5.48153 10.37 4.96662 10.892 4.24574 10.892C3.63494 10.892 3.14134 10.5085 3.10582 9.94389H1.61435C1.64276 11.201 2.74006 12.0994 4.24574 12.0994ZM10.8864 12.1598C12.7152 12.1598 13.8196 10.7678 13.8232 8.37074C13.8267 5.99148 12.7081 4.62784 10.8864 4.62784C9.06108 4.62784 7.95312 5.98793 7.94957 8.37074C7.94247 10.7607 9.05398 12.1562 10.8864 12.1598ZM10.8864 10.8849C10.0518 10.8849 9.51207 10.0469 9.51562 8.37074C9.51918 6.71946 10.0554 5.88849 10.8864 5.88849C11.7138 5.88849 12.2536 6.71946 12.2536 8.37074C12.2571 10.0469 11.7173 10.8849 10.8864 10.8849ZM14.9338 12H16.4466V10.267L16.8549 9.80185L18.3429 12H20.1149L17.9877 8.90696L20.0119 6.54545H18.2754L16.5282 8.61577H16.4466V4.72727H14.9338V12Z" fill="#868B93"/>
<path d="M1.4794 42.7216H4.97017V44H6.44034V42.7216H7.34233V41.4893H6.44034V36.7273H4.51562L1.4794 41.5107V42.7216ZM4.99858 41.4893H3.0277V41.4325L4.94176 38.4034H4.99858V41.4893ZM11.2184 44.1598C13.0472 44.1598 14.1516 42.7678 14.1552 40.3707C14.1587 37.9915 13.0401 36.6278 11.2184 36.6278C9.39311 36.6278 8.28516 37.9879 8.28161 40.3707C8.2745 42.7607 9.38601 44.1562 11.2184 44.1598ZM11.2184 42.8849C10.3839 42.8849 9.84411 42.0469 9.84766 40.3707C9.85121 38.7195 10.3874 37.8885 11.2184 37.8885C12.0458 37.8885 12.5856 38.7195 12.5856 40.3707C12.5891 42.0469 12.0494 42.8849 11.2184 42.8849ZM15.2658 44H16.7786V42.267L17.187 41.8018L18.6749 44H20.4469L18.3198 40.907L20.3439 38.5455H18.6074L16.8603 40.6158H16.7786V36.7273H15.2658V44Z" fill="#868B93"/>
<path d="M4.2777 76.0994C5.91122 76.0994 7.07955 75.201 7.07599 73.9581C7.07955 73.0526 6.50426 72.4062 5.43537 72.2713V72.2145C6.24858 72.0689 6.80966 71.4936 6.80611 70.6768C6.80966 69.5298 5.80469 68.6278 4.29901 68.6278C2.80753 68.6278 1.68537 69.5014 1.66406 70.7585H3.13778C3.15554 70.2045 3.66335 69.8459 4.2919 69.8459C4.91335 69.8459 5.32884 70.2223 5.32528 70.7692C5.32884 71.3409 4.84233 71.728 4.14276 71.728H3.46449V72.8572H4.14276C4.96662 72.8572 5.48153 73.2692 5.47798 73.8551C5.48153 74.4339 4.98438 74.8317 4.28125 74.8317C3.60298 74.8317 3.09517 74.4766 3.06676 73.9439H1.51847C1.54332 75.2152 2.67969 76.0994 4.2777 76.0994ZM11.0328 76.1598C12.8617 76.1598 13.9661 74.7678 13.9696 72.3707C13.9732 69.9915 12.8546 68.6278 11.0328 68.6278C9.20756 68.6278 8.09961 69.9879 8.09606 72.3707C8.08896 74.7607 9.20046 76.1562 11.0328 76.1598ZM11.0328 74.8849C10.1983 74.8849 9.65856 74.0469 9.66211 72.3707C9.66566 70.7195 10.2019 69.8885 11.0328 69.8885C11.8603 69.8885 12.4 70.7195 12.4 72.3707C12.4036 74.0469 11.8638 74.8849 11.0328 74.8849ZM15.0803 76H16.593V74.267L17.0014 73.8018L18.4893 76H20.2614L18.1342 72.907L20.1584 70.5455H18.4219L16.6747 72.6158H16.593V68.7273H15.0803V76Z" fill="#868B93"/>
<path d="M1.58949 108H6.77415V106.743H3.72017V106.693L4.78196 105.653C6.27699 104.289 6.67827 103.607 6.67827 102.78C6.67827 101.519 5.64844 100.628 4.08949 100.628C2.5625 100.628 1.51491 101.54 1.51847 102.968H2.97798C2.97443 102.272 3.41477 101.846 4.07884 101.846C4.71804 101.846 5.19389 102.244 5.19389 102.883C5.19389 103.462 4.83878 103.859 4.17827 104.495L1.58949 106.892V108ZM10.7399 108.16C12.5687 108.16 13.6731 106.768 13.6767 104.371C13.6802 101.991 12.5616 100.628 10.7399 100.628C8.9146 100.628 7.80664 101.988 7.80309 104.371C7.79599 106.761 8.90749 108.156 10.7399 108.16ZM10.7399 106.885C9.90536 106.885 9.36559 106.047 9.36914 104.371C9.37269 102.719 9.90891 101.888 10.7399 101.888C11.5673 101.888 12.1071 102.719 12.1071 104.371C12.1106 106.047 11.5708 106.885 10.7399 106.885ZM14.7873 108H16.3001V106.267L16.7085 105.802L18.1964 108H19.9684L17.8413 104.907L19.8654 102.545H18.1289L16.3817 104.616H16.3001V100.727H14.7873V108Z" fill="#868B93"/>
<path d="M6.75355 132.727H5.30824L3.50781 133.867V135.231L5.1733 134.187H5.21591V140H6.75355V132.727ZM11.3336 140.16C13.1625 140.16 14.2669 138.768 14.2704 136.371C14.274 133.991 13.1554 132.628 11.3336 132.628C9.50835 132.628 8.40039 133.988 8.39684 136.371C8.38974 138.761 9.50124 140.156 11.3336 140.16ZM11.3336 138.885C10.4991 138.885 9.95934 138.047 9.96289 136.371C9.96644 134.719 10.5027 133.888 11.3336 133.888C12.161 133.888 12.7008 134.719 12.7008 136.371C12.7044 138.047 12.1646 138.885 11.3336 138.885ZM15.381 140H16.8938V138.267L17.3022 137.802L18.7901 140H20.5621L18.435 136.907L20.4592 134.545H18.7227L16.9755 136.616H16.8938V132.727H15.381V140Z" fill="#868B93"/>
<path d="M11.736 172.16C13.5648 172.16 14.6692 170.768 14.6728 168.371C14.6763 165.991 13.5577 164.628 11.736 164.628C9.91069 164.628 8.80273 165.988 8.79918 168.371C8.79208 170.761 9.90359 172.156 11.736 172.16ZM11.736 170.885C10.9015 170.885 10.3617 170.047 10.3652 168.371C10.3688 166.719 10.905 165.888 11.736 165.888C12.5634 165.888 13.1032 166.719 13.1032 168.371C13.1067 170.047 12.5669 170.885 11.736 170.885ZM15.7834 172H17.2962V170.267L17.7045 169.802L19.1925 172H20.9645L18.8374 168.907L20.8615 166.545H19.125L17.3778 168.616H17.2962V164.727H15.7834V172Z" fill="#868B93"/>
<path d="M28 168.293H106.909C108.761 168.293 110.461 167.269 111.327 165.632L195.926 5.85025C197.479 2.91686 201.407 2.28316 203.804 4.57926L285.72 83.0521C286.651 83.9437 287.89 84.4415 289.179 84.4415H401.018C402.627 84.4415 404.138 85.216 405.078 86.5224L458.135 160.307C459.074 161.613 460.585 162.388 462.194 162.388H577" stroke="url(#paint0_linear_28_1)" stroke-width="3" stroke-linecap="round" stroke-linejoin="round"/>
<path d="M577 10.5918H498.014C496.203 10.5918 494.534 11.5713 493.65 13.1522L408.347 165.758C407.027 168.12 404.068 169.003 401.669 167.751L318.917 124.55C318.203 124.177 317.409 123.982 316.603 123.982H204.549C202.634 123.982 200.888 122.889 200.051 121.167L146.737 11.4072C145.9 9.6851 144.154 8.59184 142.239 8.59184H28" stroke="url(#paint1_linear_28_1)" stroke-width="3" stroke-linecap="round" stroke-linejoin="round"/>
</g>
<defs>
<linearGradient id="paint0_linear_28_1" x1="577" y1="0" x2="48.0156" y2="0" gradientUnits="userSpaceOnUse">
<stop stop-color="#4DFFDF"/>
<stop offset="1" stop-color="#4DA1FF"/>
</linearGradient>
<linearGradient id="paint1_linear_28_1" x1="28" y1="132.397" x2="563.31" y2="130.85" gradientUnits="userSpaceOnUse">
<stop stop-color="#E323FF"/>
<stop offset="1" stop-color="#7517F8"/>
</linearGradient>
<clipPath id="clip0_28_1">
<rect width="579" height="173" fill="white"/>
</clipPath>
</defs>
</svg>
